<svg xmlns="http://www.w3.org/2000/svg" width="310.173" height="311.597" viewBox="0 0 310.173 311.597">
  <g id="Grupo_1066" data-name="Grupo 1066" transform="translate(-302.964 -178.687)">
    <path id="Trazado_663" data-name="Trazado 663" d="M435.241,477.934h5.8q63.571,0,127.143.076c3.856.011,5.7-.884,6.977-4.908,3.369-10.624,10.822-17.724,21.454-21.032,3.427-1.066,4.272-2.675,4.241-6.007q-.229-24.426,0-48.854c.027-3.133-.716-4.653-3.97-5.669C585.527,387.994,578,380.284,574.55,368.9c-.817-2.69-2.049-3.417-4.644-3.412q-51.948.088-103.9,0c-2.563,0-3.933.606-4.732,3.312-3.436,11.629-11.165,19.32-22.682,22.868-3.185.981-3.744,2.491-3.7,5.369.142,8.852.11,17.708.032,26.561-.043,4.79-2.316,7.392-6.118,7.369-3.749-.023-6.093-2.724-6.132-7.444-.077-9.468-.023-18.937-.023-29.111-5.7,0-11.018,0-16.335,0-1.739,0-3.487.08-5.216-.058-3.748-.3-5.908-2.558-5.876-6.159.033-3.666,2.487-5.856,6.086-6.036,5.206-.26,10.434-.121,15.651-.148,1.687-.009,3.374,0,5.575,0,0-7.167-.033-13.767.009-20.366.042-6.519,1.955-8.451,8.5-8.457q64.284-.047,128.567.041c4,.012,6.13-.829,6.657-5.11,1.359-11.064,3-22.094,4.515-33.074-1.67-.311-2.058-.514-2.234-.4-9.772,6.488-15.261,6.37-24.3-1.163-3.688-3.071-6.946-3.874-10.965-.786a18.762,18.762,0,0,1-5.913,2.915c-9.568,2.894-16.969-3.48-15.367-13.237.817-4.98,2.077-9.885,2.948-14.857.625-3.568-.453-5.4-4.727-5.445a81.653,81.653,0,0,1-15.014-1.888c-8.585-1.708-12.607-8.174-10.126-16.55a34.187,34.187,0,0,1,4.88-9.645c8.965-12.8,18.152-25.454,27.627-38.675-15.636-11.646-32.868-18.722-52.573-22.552,1.589,3.446,2.921,6.158,4.105,8.933,6.782,15.9,2.669,28.05-12.565,36.215-4.569,2.448-9.63,3.959-14.359,6.133-7.44,3.422-15.1,6.522-22.1,10.7-9.734,5.813-11.026,11.95-5.592,21.947,2.185,4.019,4.865,7.766,7.2,11.708,3.6,6.081,5.98,12.522,5.611,19.762-.486,9.522-6.464,15.694-15.957,15.859-6.157.107-12.334-.61-18.481-.391-2.159.077-4.258,1.842-6.385,2.836,1.2,2.219,1.868,5.564,3.709,6.441,4.909,2.339,10.281,3.768,15.555,5.252,2.56.72,5.694.071,7.869,1.289,2.108,1.18,4.295,3.793,4.685,6.076a4.884,4.884,0,0,1-5.2,5.552c-11.995-.321-23.787-1.891-33.143-10.431-5.448-4.973-7.346-11.31-5.042-18.559,2.281-7.174,7.877-10.2,14.775-10.608,6.125-.366,12.305.226,18.462.37,6.084.142,7.993-1.656,6.6-7.632-.984-4.21-3.107-8.217-5.125-12.106-2.032-3.915-4.818-7.442-6.827-11.368-6.994-13.665-4.217-26.358,8.684-34.795,7.988-5.224,17.016-8.884,25.661-13.07,5.382-2.606,11.2-4.408,16.325-7.424,6.831-4.024,8.515-8.829,5.439-16.122-2.427-5.755-6.033-11.038-9.394-16.353a5.44,5.44,0,0,0-3.953-1.867c-59.127-1.6-112.077,38.758-126.292,96.35-.065.266.1.59.238,1.248,6.285-1.87,12.5-3.869,18.807-5.523a31.4,31.4,0,0,1,8.423-.973c12.155.213,19.156,11.413,13.79,22.31-1.716,3.482-4.351,6.568-6.852,9.6-7.605,9.213-8.029,16.005-1.357,25.73s6.25,16.455-1.672,25c-7.508,8.1-9.451,18.014-9.228,28.544a7.88,7.88,0,0,0,2.454,4.891c9.022,8.566,18.191,16.979,27.361,25.388a47.013,47.013,0,0,0,3.889,2.705c3.156,2.347,3.991,5.444,1.813,8.68-2.081,3.092-5.243,3.444-8.349,1.454a111.7,111.7,0,0,1-10.888-7.574c-45.6-37.57-64.041-85.748-50.288-143.137,13.6-56.768,51.182-92.178,108.452-104.187,78.587-16.479,154.543,38.4,165.2,117.893a142.468,142.468,0,0,1-2.258,50.4c-.2.9-.316,1.824-.571,3.326,8.926,0,17.575-.008,26.224,0,6.863.009,8.661,1.785,8.663,8.712q.02,59.765,0,119.532c0,6.9-1.83,8.783-8.64,8.785q-86.582.024-173.164,0c-6.761,0-8.678-1.985-8.692-8.8-.017-8.355,0-16.71,0-25.8H412.517c-4.428,0-8.862.149-13.281-.039-3.874-.165-6.3-2.382-6.235-6.318.06-3.7,2.436-5.65,6.1-5.968.785-.068,1.58-.051,2.37-.051q23.247,0,46.493.014c5.424.011,8.317,2.285,8.235,6.294-.083,3.99-2.964,6.075-8.463,6.1-4.069.014-8.139,0-12.494,0Zm61.587-209.191c6.013.445,11.3.879,16.587,1.219,7.968.512,12.157,4.011,13.6,11.884a27.347,27.347,0,0,1,.273,7.964c-.5,4.313-1.469,8.57-2.332,13.359,1.508-.763,2.5-1.2,3.435-1.746,8.818-5.167,15.468-4.547,23.375,2.149,1.2,1.014,2.408,2.257,3.828,2.691,1.264.388,3.659.319,4.126-.435,3.677-5.924,8.93-11.79,6.2-19.4-3.876-10.8-7.859-21.672-13.106-31.838-6.169-11.952-14.874-22.233-25.577-31.319-9.73,13.626-19.284,26.947-28.732,40.342C497.68,264.778,497.554,266.434,496.828,268.743ZM329.679,376.354c3.851-6.487,7.167-13.057,11.419-18.953,4.093-5.674,4.563-5.4.315-11.318-5.793-8.067-8.271-17-4.646-26.36,2.225-5.743,6.495-10.673,9.608-16.1a57.8,57.8,0,0,0,3.049-7.5c-2.8-.323-5.836-1.506-8.35-.806-7.123,1.983-14.024,4.755-21.025,7.179-2.676.928-3.75,2.588-4.01,5.557-1.983,22.578,2.264,43.984,11.621,64.49C328.338,374.028,329.188,375.435,329.679,376.354ZM435.255,379.3c7.142-1.445,12.69-7.029,13.446-13.358H435.255Zm151.881-13.5c1.664,7.169,7.426,12.767,13.348,13.148V365.8Zm-.345,112.133c4.183,0,7.941.135,11.674-.107a3.23,3.23,0,0,0,2.168-2.259c.238-3.679.1-7.383.1-11.166C594.053,465.742,589.593,470.027,586.79,477.935Z" transform="translate(0 0)" fill="#2d9347"/>
    <path id="Trazado_664" data-name="Trazado 664" d="M480.83,431.235a50.334,50.334,0,1,1,50.213,50.456A50.162,50.162,0,0,1,480.83,431.235Zm49.989-37.944c-21.188.064-37.947,17.238-37.753,38.692a38.084,38.084,0,1,0,37.753-38.692Z" transform="translate(-9.157 -10.413)" fill="#2d9347"/>
    <path id="Trazado_665" data-name="Trazado 665" d="M404.028,422.51c3.631,0,7.268-.118,10.894.03,4.339.177,7.116,2.66,6.864,6.169-.286,3.986-2.79,5.881-6.634,5.921-7.262.078-14.528.137-21.788-.011-4.467-.09-6.976-2.481-6.784-6.172.228-4.377,3.069-5.925,7.028-5.986,3.473-.053,6.947-.01,10.421-.01Z" transform="translate(-4.304 -12.548)" fill="#2d9347"/>
    <path id="Trazado_666" data-name="Trazado 666" d="M382.632,405.473c-5.139-.025-7.823-2.165-7.753-6.183.067-3.911,2.968-6.132,7.969-6.1,4.873.028,7.86,2.447,7.8,6.318S387.737,405.5,382.632,405.473Z" transform="translate(-3.702 -11.042)" fill="#2d9347"/>
    <path id="Trazado_667" data-name="Trazado 667" d="M526.875,447.97c0-2.333-.155-4.518.04-6.671.237-2.629-1.068-3.55-3.389-4.141-10.59-2.7-15.551-7.846-15.325-15.67.229-7.98,6.1-13.839,15.926-16.222a6.491,6.491,0,0,0,3.3-2.723c3.132-4.7,7.94-4.7,11.094-.087a8.012,8.012,0,0,0,4.063,3.056c7.1,1.977,12.236,7.327,13.349,14.484.555,3.567-.579,6.406-4.248,7.375-3.807,1.005-6.3-.7-7.7-4.419a36.321,36.321,0,0,0-3.1-5.359l-1.744.633c0,2.289-.331,4.647.127,6.84a5.993,5.993,0,0,0,2.809,3.328c1.454.844,3.353.876,4.945,1.539a15.024,15.024,0,0,1,9.153,13.8c-.172,6.585-4.942,13.406-11.4,15.527-3.037,1-5.368,1.791-6.94,5.2-1.94,4.209-7.74,3.354-10.412-.8a7.729,7.729,0,0,0-4.284-3.145c-7.688-1.756-13.564-7.624-14.585-15.021-.536-3.877.881-6.669,4.782-7.441,3.629-.718,6.234,1.02,7.01,4.7C521.06,446.154,522.694,448.1,526.875,447.97Zm-.236-29.762-1.616-1.18-4.266,5.011,5.883,4.28Zm13.9,22.176-1.029.758v6.19l1.149.614c1.037-1.439,2.64-2.787,2.891-4.352C543.692,442.709,541.615,441.466,540.539,440.385Z" transform="translate(-10.565 -11.342)" fill="#2d9347"/>
  </g>
</svg>
