<svg xmlns="http://www.w3.org/2000/svg" width="127.958" height="127.949" viewBox="0 0 127.958 127.949">
  <g id="Grupo_260" data-name="Grupo 260" transform="translate(-133.972 -154.307)">
    <g id="Grupo_259" data-name="Grupo 259">
      <path id="Trazado_640" data-name="Trazado 640" d="M212.1,250.3h-4.244c0,2.471-.01,4.863.005,7.256.008,1.309-.2,2.537-1.809,2.591-1.734.057-2.007-1.223-2.01-2.6-.005-2.342,0-4.684,0-7.176h-4.183V252.4q0,13.139,0,26.278c0,.507.181,1.135-.05,1.5-.487.767-1.106,1.843-1.827,1.982-1.224.236-1.881-.787-1.929-2.042-.019-.507-.01-1.015-.01-1.523V250.336h-4.182c0,1.955,0,3.958,0,5.96a4.749,4.749,0,0,1-.095,2.062,3.465,3.465,0,0,1-1.827,1.736c-1.185.258-1.85-.694-1.873-1.855-.049-2.59-.015-5.181-.015-7.9H183.8v6.079c0,2.729.045,5.459-.02,8.187a2.9,2.9,0,0,0,1.525,3.052,5.592,5.592,0,0,1,2.183,6.549,5.864,5.864,0,0,1-11.192-.15,5.543,5.543,0,0,1,2.368-6.475,2.585,2.585,0,0,0,1.4-2.733c-.043-4.807-.018-9.616-.018-14.638-4.09.089-8.045.235-11.143-2.9-3.05-3.088-3.052-6.934-2.836-10.995-3.9-.22-7.526-.757-10.482,2.824a123.179,123.179,0,0,1-9.239,9.33,2.383,2.383,0,0,0-.8,2.641,5.678,5.678,0,0,1-2.96,6.406,5.84,5.84,0,0,1-6.853-1,5.781,5.781,0,0,1-1.009-7,5.689,5.689,0,0,1,6.446-2.871,2.168,2.168,0,0,0,2.466-.755c3.252-3.3,6.627-6.483,9.791-9.864a10.24,10.24,0,0,1,8.784-3.615c1.183.1,2.382.016,3.691.016v-4.245c-2.4,0-4.727-.012-7.058.005-1.352.01-2.721-.1-2.753-1.835-.034-1.858,1.407-1.986,2.821-1.986h6.968v-4.182h-2.069q-13.139,0-26.277,0c-.571,0-1.272.19-1.684-.07-.718-.453-1.725-1.177-1.739-1.806s.971-1.388,1.674-1.859c.4-.267,1.11-.079,1.681-.079q13.139,0,26.278,0H165.9v-4.182c-1.964,0-3.97,0-5.975,0a4.731,4.731,0,0,1-2.062-.1c-.719-.4-1.779-1.308-1.681-1.793a2.747,2.747,0,0,1,1.828-1.835c2.572-.218,5.173-.086,7.882-.086v-4.238c-5.309,0-10.557-.022-15.8.046-.4.005-.873.593-1.156,1.015a5.924,5.924,0,0,1-6.745,2.681,5.875,5.875,0,1,1,6.747-8.6c.307.452.865,1.037,1.314,1.043,5.187.073,10.376.047,15.765.047,0-1.492-.047-2.809.016-4.121a5.591,5.591,0,0,1,.44-2.581,2.557,2.557,0,0,1,2.039-1.135,2.434,2.434,0,0,1,1.445,1.844c0,14.908-.111,29.817-.18,44.725-.024,5.036,2.3,7.354,7.3,7.355q20.946.006,41.891-.008a10.172,10.172,0,0,1,2.626-.149,8.529,8.529,0,0,1,2.244,1.554c-.529.688-.966,1.851-1.6,1.974a55.234,55.234,0,0,1-6.328.558,51.322,51.322,0,0,0,.072,6.044,5.286,5.286,0,0,0,1.535,2.737q5.364,5.539,10.912,10.9a2.788,2.788,0,0,0,2.107.6,6.031,6.031,0,0,1,6.633,2.937,5.884,5.884,0,0,1-1.079,7,5.786,5.786,0,0,1-6.862.922,6.035,6.035,0,0,1-2.937-6.632,2.767,2.767,0,0,0-.615-2.1c-3.212-3.338-6.434-6.675-9.821-9.833-2.695-2.513-4.118-5.385-3.769-9.1C212.19,252.745,212.1,251.606,212.1,250.3Zm-74.637,1.49-.042.908c.8.584,1.62,1.636,2.408,1.616a2.928,2.928,0,0,0,2.023-1.887,1.707,1.707,0,0,0-1.984-2.108C139.021,250.422,138.263,251.275,137.464,251.792Zm94.112,27,.906,0c.546-.832,1.557-1.7,1.5-2.486a2.923,2.923,0,0,0-1.988-1.92,1.7,1.7,0,0,0-2,2.087C230.147,277.307,231.025,278.018,231.576,278.788Zm-90.107-76.962v.85c.777.555,1.5,1.453,2.344,1.588,1.318.209,2.122-.752,2.1-2.105a1.813,1.813,0,0,0-2.089-1.946C142.97,200.349,142.248,201.26,141.469,201.826Zm40.037,72.942.85,0c.551-.781,1.445-1.51,1.575-2.356.2-1.321-.767-2.119-2.118-2.081a1.811,1.811,0,0,0-1.934,2.1C180.024,273.275,180.936,273.993,181.506,274.768Z" fill="#2d9347"/>
      <path id="Trazado_641" data-name="Trazado 641" d="M229.976,220.191v4.182c2.415,0,4.745,0,7.075,0,1.337,0,2.723.116,2.759,1.851.039,1.867-1.381,1.982-2.81,1.97-2.277-.02-4.553-.006-6.971-.006v4.245h7.92c2.348,0,4.7.074,7.042-.047a2.838,2.838,0,0,0,1.931-1.007c1.761-2.477,4.254-3.5,6.922-2.649a5.866,5.866,0,0,1-.079,11.195c-2.649.8-5.172-.242-6.875-2.767a3.292,3.292,0,0,0-1.205-.944c-.249-.131-.623-.027-.94-.027H229.886c0,1.521.036,2.9-.014,4.268a4.3,4.3,0,0,1-.364,2.212c-.474.656-1.485,1.472-2.078,1.345a2.591,2.591,0,0,1-1.47-2.007c-.007-14.78.1-29.561.167-44.342.024-5.306-2.226-7.56-7.481-7.561q-20.754,0-41.508.008c-.946,0-1.892.126-2.837.2-1.192.1-2.181-.432-2.141-1.582a2.594,2.594,0,0,1,1.458-1.989,54.958,54.958,0,0,1,6.27-.553c.452-3.969.526-7.634-3.13-10.606a107.316,107.316,0,0,1-8.925-8.834,2.508,2.508,0,0,0-2.8-.86,5.652,5.652,0,0,1-6.358-3.051,5.828,5.828,0,0,1,1.1-6.836,5.754,5.754,0,0,1,6.847-.989,5.588,5.588,0,0,1,2.958,6.391,2.359,2.359,0,0,0,.828,2.63c3.262,3.2,6.39,6.541,9.732,9.653a10.4,10.4,0,0,1,3.68,8.951c-.1,1.128-.015,2.272-.015,3.559h4.243c0-2.348.016-4.736-.006-7.125-.013-1.388.2-2.682,1.93-2.656s1.892,1.375,1.892,2.726v7.1h4.182v-2.007q0-13.233,0-26.467c0-.507-.185-1.152.055-1.494a15.887,15.887,0,0,1,1.909-1.969,10.494,10.494,0,0,1,1.777,1.9c.275.483.073,1.24.073,1.875,0,9.323,0,18.646,0,28.119h4.184c0-2.453-.1-4.915.058-7.36a3.275,3.275,0,0,1,1.243-2.286c1.194-.745,2.467.357,2.5,2.072.048,2.469.012,4.94.012,7.567H212.1v-5.01c0-3.3.064-6.6-.052-9.9a2.993,2.993,0,0,0-1.121-2.034,6.036,6.036,0,0,1-2.553-6.808,5.875,5.875,0,1,1,8.667,6.774c-.494.341-1.125.955-1.133,1.452-.083,5.132-.051,10.265-.051,15.623,3.983.045,7.963-.211,11.074,2.893s3.117,7.019,2.912,11.146a54.686,54.686,0,0,0,6.215-.07,5.274,5.274,0,0,0,2.751-1.511q5.541-5.361,10.893-10.915a3.031,3.031,0,0,0,.591-2.28,6.085,6.085,0,0,1,2.938-6.472,5.862,5.862,0,0,1,7.909,8.054,6.138,6.138,0,0,1-6.524,2.835,2.987,2.987,0,0,0-2.242.689c-3.344,3.206-6.677,6.432-9.834,9.819a10.407,10.407,0,0,1-8.955,3.671c-1.127-.1-2.269-.015-3.551-.015v4.243h6.377c2.563,0,3.561.525,3.41,1.94-.24,2.253-2.04,1.841-3.51,1.867-2.078.036-4.157.009-6.328.009v4.182h2.033q13.233,0,26.467,0c.633,0,1.414-.18,1.864.119a3.147,3.147,0,0,1,1.468,1.876c.042.542-.81,1.318-1.442,1.693a4.024,4.024,0,0,1-1.868.122q-13.139.007-26.276,0Zm-66.536-57.6.889,0c.545-.775,1.423-1.5,1.557-2.338a1.821,1.821,0,0,0-2.017-2.147c-1.241.006-2.173.811-2,1.983C162.008,160.982,162.89,161.762,163.44,162.594Zm95.011,22.077,0-.854c-.764-.566-1.466-1.466-2.306-1.623-1.288-.241-2.149.686-2.173,2.01a1.809,1.809,0,0,0,2.137,2.034C256.956,186.1,257.676,185.219,258.451,184.671ZM214.5,161.813l-.847-.028c-.586.758-1.516,1.448-1.679,2.288-.252,1.3.669,2.15,2.029,2.166a1.793,1.793,0,0,0,2.007-2.015C215.893,163.368,215.028,162.613,214.5,161.813Zm39.948,72.839-.031-.86c-.8-.522-1.553-1.386-2.4-1.488-1.323-.159-2.1.818-2.011,2.177a1.794,1.794,0,0,0,2.152,1.858C253,236.163,253.687,235.241,254.445,234.652Z" fill="#2d9347"/>
    </g>
    <rect id="Rectángulo_38" data-name="Rectángulo 38" width="32" height="32" rx="2.92" transform="translate(182.193 201.807)" fill="none" stroke="#2d9347" stroke-miterlimit="10" stroke-width="4"/>
  </g>
</svg>
