<svg xmlns="http://www.w3.org/2000/svg" width="117.5" height="117.438" viewBox="0 0 117.5 117.438">
  <g id="Grupo_1081" data-name="Grupo 1081" transform="translate(-204.727 -41.215)">
    <path id="Trazado_689" data-name="Trazado 689" d="M210.5,99.928a52.9,52.9,0,0,0,105.426,6.284,53.738,53.738,0,0,0-1.795-21.254c-.667-2.3-.079-3.864,1.715-4.455,1.736-.571,3.215.456,3.909,2.718,7.863,25.6-3.562,54.264-26.923,67.546a58.639,58.639,0,0,1-79.748-20.7c-19.341-31.86-3.625-74.233,31.792-85.808a58.37,58.37,0,0,1,34.727-.767,13.438,13.438,0,0,1,1.328.427,2.917,2.917,0,1,1-1.714,5.574c-1.361-.309-2.693-.739-4.053-1.051A52.775,52.775,0,0,0,211.028,93.5C210.766,95.629,210.673,97.784,210.5,99.928Z" fill="#2d9347"/>
    <path id="Trazado_690" data-name="Trazado 690" d="M332.3,131.883c-.017-.244-.073-.882-.107-1.521-.1-1.946.946-3.3,2.662-3.444a2.912,2.912,0,0,1,3.119,2.843,37.559,37.559,0,0,1-3.033,18.755,40.928,40.928,0,1,1-41.15-56.69,36.855,36.855,0,0,1,6.088.022,2.96,2.96,0,0,1,2.846,3.309c-.15,1.652-1.371,2.527-3.391,2.433-20.926-.982-37.567,15.149-37.212,36.069.282,16.6,13.166,31.136,29.779,33.6A35.157,35.157,0,0,0,332.3,131.883Z" transform="translate(-33.546 -32.848)" fill="#2d9347"/>
    <path id="Trazado_691" data-name="Trazado 691" d="M408.781,69.719c2.865,0,5.418.018,7.971-.007,1.507-.015,2.825.346,3.445,1.849s-.06,2.664-1.136,3.734c-5.532,5.5-11,11.059-16.591,16.5a5.162,5.162,0,0,1-3.058,1.268c-2.783.174-5.589-.024-8.377.11a4.23,4.23,0,0,0-2.557,1.062c-5.983,5.872-11.885,11.826-17.826,17.741a7.8,7.8,0,0,1-1.765,1.39,2.848,2.848,0,0,1-3.743-3.794,8.145,8.145,0,0,1,1.408-1.754c5.793-5.816,11.581-11.638,17.425-17.4a4.106,4.106,0,0,0,1.422-3.345,70.072,70.072,0,0,1,.031-7.854A5.486,5.486,0,0,1,386.735,76c5.435-5.594,11-11.062,16.5-16.595,1.075-1.082,2.245-1.727,3.739-1.092s1.83,1.97,1.816,3.467C408.764,64.334,408.781,66.884,408.781,69.719ZM402.9,68.225c-.645.565-1.059.89-1.429,1.258q-3.216,3.2-6.414,6.411c-3.99,3.992-3.99,3.992-3.82,9.642a2.7,2.7,0,0,1,0,.348c-.108,1.086.44,1.42,1.452,1.391a42.6,42.6,0,0,0,4.353-.037,5.39,5.39,0,0,0,2.863-1.174c3.13-2.948,6.126-6.038,9.162-9.086.344-.345.633-.743,1.163-1.375H407.68c-4.142,0-4.782-.629-4.784-4.692Z" transform="translate(-104.131 -10.962)" fill="#2d9347"/>
    <path id="Trazado_692" data-name="Trazado 692" d="M330.446,188.51c-13.222.072-23.725-10.183-23.931-22.774a23.346,23.346,0,0,1,22.663-23.978c2.151-.049,3.483.944,3.609,2.692.13,1.8-1.13,2.974-3.366,3.136-9.366.68-15.717,6.592-16.957,15.783-1.181,8.75,5.5,17.648,14.286,19.024,10.859,1.7,19.931-5.632,20.662-16.762.113-1.715.678-2.958,2.429-3.348,1.983-.441,3.532,1.132,3.41,3.52-.463,9.061-4.724,15.782-12.66,20.128A20.791,20.791,0,0,1,330.446,188.51Z" transform="translate(-66.212 -65.404)" fill="#2d9347"/>
  </g>
</svg>
