<svg xmlns="http://www.w3.org/2000/svg" width="278" height="114.814" viewBox="0 0 278 114.814">
  <g id="Grupo_1065" data-name="Grupo 1065" transform="translate(-329.604 -201.155)">
    <path id="Trazado_658" data-name="Trazado 658" d="M485.2,291.477q55.473,0,110.947.01c18.49.017,27.881,9.353,27.935,27.77q.088,30.3,0,60.594c-.07,16.128-9.718,26.235-25.762,26.263q-112.77.193-225.542-.006c-16.782-.027-26.377-9.748-26.5-26.289q-.228-30.662-.059-61.324c.111-17.373,9.839-27.008,27.306-27.05,37.225-.094,74.451-.029,111.678-.029Zm-.33,97.984v.052q55.5,0,111-.013c9.8-.009,11.941-2.2,11.953-12.077q.033-28.851-.05-57.7c-.027-9.279-2.421-11.841-11.608-11.846q-111-.075-222.006.01c-9.151.009-11.623,2.681-11.649,11.9q-.081,28.851-.007,57.7c.019,9.8,2.126,11.942,12.091,11.956Q429.735,389.516,484.872,389.461Z" transform="translate(-16.533 -90.239)" fill="#2d9347"/>
    <path id="Trazado_660" data-name="Trazado 660" d="M384.275,338.4c-5.63-4.43-9.516-7.011-12.809-10.206-3.639-3.531-3.966-7.946-.277-11.63,3.674-3.668,8.149-3.431,11.635.24,3.141,3.307,5.537,7.323,8.262,11.027l3.724-.469c2.5-3.253,4.784-6.7,7.548-9.713,3.789-4.125,8.453-5.28,12.733-1.013,4.409,4.394,2.779,8.979-1.32,12.66-3.062,2.75-6.569,5-9.88,7.481l.082,3.4c3.63,2.843,7.52,5.414,10.82,8.6,3.687,3.56,3.926,7.933.115,11.575-3.756,3.588-8.1,3.2-11.693-.355-3.09-3.061-5.676-6.632-8.966-10.553-3.6,3.392-6.044,5.623-8.405,7.941-6.111,5.994-11.363,7.2-14.93,2.958-4.919-5.845-1.453-10.357,3.037-14.3C376.5,343.812,379.4,341.981,384.275,338.4Z" transform="translate(-6.236 -79.869)" fill="#2d9347"/>
    <path id="Trazado_661" data-name="Trazado 661" d="M503.482,349.838c-2.755,3.385-5.26,7.021-8.33,10.089-3.791,3.788-8.293,4.29-12.22.209-3.731-3.875-2.937-8.091.672-11.62,3.121-3.052,6.616-5.722,10.522-9.053-3.973-4.17-6.889-7.289-9.871-10.344-3.935-4.032-5.349-8.483-.841-12.729,4.1-3.865,8.584-2.844,12.235,1.035,2.821,3,5.255,6.355,8.3,10.087,3.92-3.7,6.625-6.042,9.078-8.62,4.077-4.284,8.474-7.057,13.882-2.5,4.363,3.675,3.528,8.511-2.45,14.31-2.428,2.355-5.436,4.111-8.561,6.419,4.651,4.867,7.89,8.091,10.934,11.489,3.4,3.792,3.877,8.087.162,11.721-3.691,3.612-8.144,3.269-11.7-.352-3.057-3.109-5.525-6.8-8.255-10.23Z" transform="translate(45.294 -79.858)" fill="#2d9347"/>
    <path id="Trazado_662" data-name="Trazado 662" d="M449.712,328.7c3.849-4.865,6.305-8.535,9.331-11.651,3.77-3.884,8.336-4.292,12.216-.273,3.664,3.8,3.011,8.145-.632,11.651-3.142,3.022-6.753,5.559-10.668,8.723,3.312,3.522,5.208,5.617,7.19,7.631,6.989,7.1,8.081,11.233,4.024,15.449-3.97,4.128-8.815,2.977-15.463-3.608-2.03-2.011-4.157-3.922-8.1-7.625-2.969,3.9-5.347,7.619-8.328,10.775-3.68,3.894-8.26,4.553-12.218.553-4.011-4.053-3.068-8.546.844-12.188,3.185-2.964,6.809-5.457,12.429-9.886-5.657-4.39-9.579-6.943-12.889-10.131-3.684-3.545-3.935-7.963-.186-11.625,3.734-3.648,8.069-3.185,11.718.315C442.131,319.828,444.863,323.279,449.712,328.7Z" transform="translate(19.52 -79.863)" fill="#2d9347"/>
  </g>
</svg>
