<svg xmlns="http://www.w3.org/2000/svg" width="100.443" height="111.088" viewBox="0 0 100.443 111.088">
  <g id="Grupo_263" data-name="Grupo 263" transform="translate(-1381 -2216.912)">
    <g id="Grupo_262" data-name="Grupo 262" transform="translate(1142.459 1959.604)">
      <path id="Trazado_646" data-name="Trazado 646" d="M338.984,292.774c-.421,6.934-.457,13.919-1.347,20.792a62.329,62.329,0,0,1-13.88,31.577,73.923,73.923,0,0,1-29.36,22.015,14.249,14.249,0,0,1-11.694-.035c-17.221-7.415-30.2-19.306-38.177-36.37a66.521,66.521,0,0,1-5.982-28.458q-.008-11.349,0-22.7c0-2.279.331-2.746,2.584-3.35a195.184,195.184,0,0,0,45.615-18.408,3.423,3.423,0,0,1,3.716.03,200.863,200.863,0,0,0,45,18.211c3.044.846,3.159,1.011,3.159,4.244v12.425Zm-4.742-12.426a4.805,4.805,0,0,0-.5-.228,206.31,206.31,0,0,1-44.3-17.764,2.34,2.34,0,0,0-1.909.1,197.681,197.681,0,0,1-43.208,17.36,1.629,1.629,0,0,0-1.438,1.922c.058,6.959-.012,13.917.039,20.876.111,15.414,4.888,29.139,14.89,40.971A73.041,73.041,0,0,0,282.2,362.276a13.731,13.731,0,0,0,12.795-.016,73.45,73.45,0,0,0,23.728-17.944c7.925-9.1,13.055-19.557,14.61-31.524.771-5.939.72-11.994.885-18C334.348,290,334.242,285.2,334.242,280.348Z" transform="translate(0)" fill="#2d9347"/>
      <path id="Trazado_647" data-name="Trazado 647" d="M333.105,297.812c.052,7.066.031,14.1-1.562,21.074a59.68,59.68,0,0,1-18.053,30.786,67.057,67.057,0,0,1-19.108,12.607,8.365,8.365,0,0,1-7.3.023c-20.518-9.584-34.062-24.8-38.017-47.556-.778-4.477-.645-9.124-.767-13.7-.119-4.414-.031-8.833-.023-13.251,0-2.25.313-2.717,2.417-3.328A205.789,205.789,0,0,0,289.1,268.845a3.112,3.112,0,0,1,3.238.03,210.9,210.9,0,0,0,38.426,15.586,2.9,2.9,0,0,1,2.358,3.247C333.058,291.075,333.105,294.444,333.105,297.812ZM252.647,298.9c0,2.319-.027,4.639,0,6.957A54.354,54.354,0,0,0,258.69,330.7c6.269,11.969,15.852,20.445,27.755,26.568a8.418,8.418,0,0,0,8.5,0,67.442,67.442,0,0,0,19.786-15.026c7.335-8.271,12.237-17.8,13.307-28.824.771-7.939.52-15.977.649-23.972a1.807,1.807,0,0,0-1.06-1.289,241.4,241.4,0,0,1-35.954-14.66,2.468,2.468,0,0,0-1.955.009,225.779,225.779,0,0,1-35.98,14.6,1.325,1.325,0,0,0-1.107,1.512C252.675,292.712,252.647,295.805,252.647,298.9Z" transform="translate(-2.112 -2.417)" fill="#2d9347"/>
    </g>
    <path id="Trazado_648" data-name="Trazado 648" d="M137.615,83.964c5.113,1.694,8.452,4.839,9.107,10.325.232,1.919.053,3.645-2.31,3.965-2.268.31-2.764-1.31-3.12-3.085-.919-4.578-4.8-7-8.607-5.377a6.155,6.155,0,0,0-3.751,6.712c.38,3,2.3,4.884,5.49,5.282,3.384.4,6.585,1.088,9.051,3.768,5.663,6.163,4,15.365-3.578,18.9-1.585.74-2.571,1.409-2.493,3.377a2.5,2.5,0,0,1-2.817,2.817c-1.947-.074-2.673-1.335-2.6-3.025s-.437-2.539-2.113-3.3a10.9,10.9,0,0,1-6.54-9.441c-.187-1.856.141-3.522,2.282-3.789s2.983,1.268,3.191,3.081c.352,3.022,1.845,5.015,4.839,5.663a6.161,6.161,0,0,0,7.522-4.93,6.308,6.308,0,0,0-5.427-7.441,28.879,28.879,0,0,1-5.142-.944,11.467,11.467,0,0,1-7.364-10.466c0-5.18,2.247-8.955,7.015-11.216a3.152,3.152,0,0,0,1.62-2.011c.158-1.986.335-3.983,2.782-3.993,2.592,0,2.877,2.088,2.863,4.152C137.524,83.235,137.569,83.474,137.615,83.964Z" transform="translate(1296.18 2164.709)" fill="#2d9347"/>
  </g>
</svg>
