<svg xmlns="http://www.w3.org/2000/svg" width="127.56" height="129.43" viewBox="0 0 127.56 129.43">
  <g id="Grupo_1083" data-name="Grupo 1083" transform="translate(-222.279 -5.71)">
    <path id="Trazado_700" data-name="Trazado 700" d="M351.853,150.286H362.1v-2.142c0-5.133,0-32.595,0-37.728,0-2.636.773-3.8,2.472-3.782,1.719.021,2.6,1.273,2.6,3.738.006,6.031.049,34.392-.032,40.423a3.726,3.726,0,0,0,1.617,3.338,19.367,19.367,0,1,1-27.75,26.386,18.975,18.975,0,0,1,2.732-25.151,8.286,8.286,0,0,0,3.022-7.161c-.149-14.757-.087-29.515-.057-44.273.012-5.7,3.193-9.749,8.28-10.715,6.179-1.173,11.671,3.188,12.132,9.771.183,2.618.1,5.26.034,7.889a2.534,2.534,0,0,1-2.554,2.794c-1.485.069-2.427-.979-2.475-2.809-.063-2.372.015-4.748-.036-7.122-.072-3.4-2.221-5.629-5.3-5.584-3,.044-5,2.246-5,5.633q-.026,22.714,0,45.429C351.783,149.66,351.84,150.1,351.853,150.286Zm-7.461,25.766c1.195-1.574,2.442-3.092,3.528-4.719a2.755,2.755,0,0,0,.332-1.973,9.072,9.072,0,0,1,3.533-9.838,9.028,9.028,0,0,1,13.779,9.86,2.385,2.385,0,0,0,.143,1.725c1.2,1.736,2.541,3.377,3.782,4.992,3.141-5.407,1.833-13.331-3-17.322-6.145-5.077-13.493-5.005-19.362.189C342.368,163.181,341.162,170.9,344.391,176.052Zm7.557-1.531a7.766,7.766,0,0,0-2.935,5.755,1.885,1.885,0,0,0,.614,1.387c3.6,2.677,10.637,2.727,14.371.112a1.886,1.886,0,0,0,.8-1.313,7.229,7.229,0,0,0-2.953-5.878A9.948,9.948,0,0,1,351.949,174.521Zm4.9-3.691a4.036,4.036,0,0,0,4.07-3.8,4.235,4.235,0,0,0-4.053-4.072,4.049,4.049,0,0,0-3.911,3.956A3.884,3.884,0,0,0,356.845,170.83Z" transform="translate(-70.854 -53.702)" fill="#2d9347"/>
    <path id="Trazado_701" data-name="Trazado 701" d="M251.859,161.5c0,5.133.056,10.268-.035,15.4a3.447,3.447,0,0,0,1.618,3.155,19.357,19.357,0,0,1-18.447,33.536c-7.022-2.689-11.409-7.9-12.48-15.342a18.6,18.6,0,0,1,7.479-18.3,3.349,3.349,0,0,0,1.47-3.032q-.075-15.111-.02-30.222c.014-5.937,2.51-9.506,7.634-11.058,5.567-1.686,11.994,2.568,12.614,8.35a16.686,16.686,0,0,1,.147,1.725q.017,7.892.007,15.785Zm-5.111,14.741a7.04,7.04,0,0,0,.08-.809q.008-14.7,0-29.408a8.6,8.6,0,0,0-.172-1.718,5.02,5.02,0,0,0-4.463-3.876c-3.424-.262-5.7,1.9-5.715,5.659-.048,9.674-.019,19.349-.009,29.023a6.794,6.794,0,0,0,.145,1.129Zm7.481,25.838c3.428-6.624,1.685-13.957-4.471-18.461-5.546-4.058-13.315-3.277-18.428,1.852-4.38,4.393-5.329,12.173-2.164,16.465,1.21-1.557,2.491-3.131,3.668-4.779a2.054,2.054,0,0,0,.241-1.524c-1.065-4.078.157-7.83,3.347-10.049a8.966,8.966,0,0,1,10.445,0c3.19,2.216,4.416,5.966,3.358,10.046a2.036,2.036,0,0,0,.273,1.5C251.665,198.778,252.929,200.368,254.229,202.077Zm-17.5-1.453a6.97,6.97,0,0,0-3,5.718,1.866,1.866,0,0,0,.656,1.361c3.674,2.627,11.128,2.6,14.626-.042a1.638,1.638,0,0,0,.583-1.222c-.207-2.368-.93-4.5-3.047-5.87C243.084,202.249,240.461,202.255,236.726,200.625Zm8.81-7.621a3.89,3.89,0,1,0-7.776-.113,3.889,3.889,0,0,0,7.776.113Z" transform="translate(0 -79.68)" fill="#2d9347"/>
    <path id="Trazado_702" data-name="Trazado 702" d="M482.373,161.156c0,5.392.033,10.783-.026,16.174a2.8,2.8,0,0,0,1.241,2.56,19.353,19.353,0,0,1-12.26,34.936A18.482,18.482,0,0,1,454.8,203.993c-3.485-7.01-2.563-13.818,1.926-20.148a11.082,11.082,0,0,1,2.993-3.214c1.964-1.175,2.234-2.717,2.215-4.781-.092-9.947-.081-19.9-.026-29.844.036-6.64,5.044-11.177,11.469-10.529a9.877,9.877,0,0,1,8.908,9.315c.145,5.451.034,10.909.034,16.364Zm-5.079,15.192V169.7c0-7.887.02-15.774-.011-23.661-.014-3.6-2.3-5.783-5.65-5.519-2.841.224-4.645,2.415-4.653,5.8q-.035,14.524,0,29.047a6.235,6.235,0,0,0,.117.978Zm7.181,26.05c3.542-5.4,2.181-13.412-2.83-17.605-6-5.022-13.878-4.845-19.535.438-4.631,4.326-5.706,12.465-2.41,16.875a54.22,54.22,0,0,1,3.218-4.4,2.343,2.343,0,0,0,.571-2.535,8.992,8.992,0,0,1,6.749-11,8.836,8.836,0,0,1,10.725,7.373c.257,1.805-.537,3.839-.015,5.506.541,1.729,2.1,3.138,3.2,4.692A5.474,5.474,0,0,1,484.475,202.4Zm-17.865-1.962c-.8,1.861-1.616,3.6-2.293,5.4-.39,1.033.081,1.761,1.105,2.281a13.907,13.907,0,0,0,13.746-.2,1.9,1.9,0,0,0,.87-1.418,7.493,7.493,0,0,0-2.961-5.875C473.564,202.348,471.1,202.361,466.609,200.437Zm5.516-3.531a3.889,3.889,0,0,0,4-3.824,4.045,4.045,0,0,0-3.823-4.051A4.205,4.205,0,0,0,468.159,193,3.976,3.976,0,0,0,472.125,196.906Z" transform="translate(-141.702 -79.773)" fill="#2d9347"/>
    <path id="Trazado_703" data-name="Trazado 703" d="M308.931,21.228c-3.869,3.072-7.781,3.459-11.869.525a1.7,1.7,0,0,0-1.493.018q-13.849,7.916-27.633,15.946a1.981,1.981,0,0,0-.7,1.506c.051,4.2-2.017,7.514-5.685,8.958A8.975,8.975,0,0,1,250.42,35.42a8.93,8.93,0,0,1,13.114-2.81,2.138,2.138,0,0,0,2.839.12q12.789-7.446,25.65-14.768A2.807,2.807,0,0,0,293.739,15a8.948,8.948,0,1,1,17.823.753,2.017,2.017,0,0,0,.8,1.625q13.539,7.877,27.168,15.6a2.231,2.231,0,0,0,1.95-.186c3.971-2.807,9.3-2.431,12.207.956a9.005,9.005,0,0,1-12.752,12.7c-2.108-1.859-2.822-4.327-2.912-7.072a2.406,2.406,0,0,0-.845-1.768C327.786,32.1,318.349,26.668,308.931,21.228Zm-2.268-6.522a4.283,4.283,0,0,0-3.792-3.93,4.035,4.035,0,0,0-4.177,3.876A3.99,3.99,0,0,0,302.7,18.7,4.3,4.3,0,0,0,306.663,14.706Zm40.352,21.127a4.158,4.158,0,0,0-3.968,3.931,4.211,4.211,0,0,0,4.064,4.038,3.985,3.985,0,0,0-.1-7.969Zm-84.871,3.93a3.9,3.9,0,1,0-7.791,0,3.9,3.9,0,1,0,7.791,0Z" transform="translate(-16.601)" fill="#2d9347"/>
  </g>
</svg>
