<svg xmlns="http://www.w3.org/2000/svg" width="110.095" height="110.083" viewBox="0 0 110.095 110.083">
  <g id="Grupo_1082" data-name="Grupo 1082" transform="translate(-285.923 -116.351)">
    <path id="Trazado_693" data-name="Trazado 693" d="M340.93,151.044c9.449-.025,18,3.023,26.012,7.757,10.75,6.351,19.647,14.82,27.475,24.465,2.082,2.566,2.134,3.793.156,6.224-8.968,11.022-19.19,20.586-32.018,27.024q-21.507,10.794-43.084.038c-12.884-6.454-23.15-16.047-32.143-27.122-1.886-2.323-1.873-3.612.045-5.969,9-11.065,19.278-20.646,32.167-27.093A47.218,47.218,0,0,1,340.93,151.044Zm47.784,35.439c-9.252-11.088-19.592-20.49-32.965-25.983a37.844,37.844,0,0,0-29.344-.126,66.887,66.887,0,0,0-20.492,12.983c-4.442,4.076-8.558,8.508-12.82,12.781.386.49.434.651.532.769,7.849,9.439,16.739,17.642,27.733,23.344,10.685,5.542,21.756,7.036,33.184,2.687C368.521,207.618,379.151,197.88,388.714,186.483Z" transform="translate(0 -15.082)" fill="#2d9347"/>
    <path id="Trazado_694" data-name="Trazado 694" d="M292.46,122.868c0,3.119.036,6-.023,8.882a5.644,5.644,0,0,1-.511,2.51,2.92,2.92,0,0,1-3.286,1.575,3.219,3.219,0,0,1-2.651-3.107c-.08-2.288-.029-4.58-.032-6.87,0-1.964-.032-3.927.009-5.89a3.332,3.332,0,0,1,3.587-3.587q6.217-.064,12.433,0a3.418,3.418,0,0,1,3.533,3.144A3.366,3.366,0,0,1,302,122.851C298.9,122.918,295.8,122.868,292.46,122.868Z" transform="translate(-0.009)" fill="#2d9347"/>
    <path id="Trazado_695" data-name="Trazado 695" d="M459.108,122.878c-2.995,0-5.717.006-8.44-.005a10.372,10.372,0,0,1-1.789-.11,3.276,3.276,0,0,1-2.831-3.278,3.382,3.382,0,0,1,3.094-3.065c.974-.089,1.961-.042,2.942-.043,3.217,0,6.434-.019,9.652,0q3.839.028,3.866,3.808.036,5.971,0,11.942c-.012,2.191-1.4,3.8-3.2,3.806-1.856,0-3.243-1.515-3.278-3.738C459.072,129.158,459.108,126.116,459.108,122.878Z" transform="translate(-69.612 -0.006)" fill="#2d9347"/>
    <path id="Trazado_696" data-name="Trazado 696" d="M292.459,289.524c3.13,0,6.014-.037,8.9.023a5.479,5.479,0,0,1,2.506.522,2.877,2.877,0,0,1,1.506,3.45,3.067,3.067,0,0,1-3.069,2.474q-6.542.1-13.086,0a3.132,3.132,0,0,1-3.207-3.093c-.086-4.415-.08-8.833-.009-13.249a3.215,3.215,0,1,1,6.425.191c.1,2.5.033,5.016.037,7.524C292.46,288.015,292.459,288.659,292.459,289.524Z" transform="translate(-0.008 -69.609)" fill="#2d9347"/>
    <path id="Trazado_697" data-name="Trazado 697" d="M459.108,289.559c0-3.143-.031-6.027.02-8.911a5.631,5.631,0,0,1,.454-2.364,2.906,2.906,0,0,1,3.373-1.676,3.213,3.213,0,0,1,2.623,3.121c.076,2.342.029,4.688.032,7.033,0,1.908.037,3.818-.011,5.725a3.335,3.335,0,0,1-3.614,3.559q-6.134.053-12.268,0a3.428,3.428,0,0,1-3.667-3.178,3.381,3.381,0,0,1,3.553-3.289C452.7,289.5,455.8,289.559,459.108,289.559Z" transform="translate(-69.613 -69.639)" fill="#2d9347"/>
    <path id="Trazado_698" data-name="Trazado 698" d="M388.528,196.361a22.593,22.593,0,1,1-22.5-22.6A22.818,22.818,0,0,1,388.528,196.361Zm-22.6-16.1a16.088,16.088,0,1,0,16.095,16.163A16.094,16.094,0,0,0,365.928,180.262Z" transform="translate(-24.962 -24.957)" fill="#2d9347"/>
    <path id="Trazado_699" data-name="Trazado 699" d="M385.534,206.348a9.631,9.631,0,1,1-9.643-9.659A9.586,9.586,0,0,1,385.534,206.348Zm-6.468-.049a3.162,3.162,0,1,0-3.06,3.18A3.214,3.214,0,0,0,379.066,206.3Z" transform="translate(-34.931 -34.926)" fill="#2d9347"/>
  </g>
</svg>
